<svg width="24" height="24" viewBox="0 0 24 24" fill="none">
<path fill-rule="evenodd" clip-rule="evenodd" d="M6.70215 11.2875H11.3902V5.28809L6.70215 6.36798V11.2875Z" fill="#001D3A"/>
<path fill-rule="evenodd" clip-rule="evenodd" d="M6.70215 12.9334C6.70215 15.2903 8.43341 17.4929 11.3817 18.9327V12.522H6.70215V12.9334Z" fill="#001D3A"/>
<path fill-rule="evenodd" clip-rule="evenodd" d="M17.295 6.36798L12.6069 5.28809V11.2875H17.295V6.36798Z" fill="#001D3A"/>
<path fill-rule="evenodd" clip-rule="evenodd" d="M17.2953 12.9334V12.522H12.6157V18.9327C15.564 17.4929 17.2953 15.2388 17.2953 12.9334Z" fill="#001D3A"/>
<path fill-rule="evenodd" clip-rule="evenodd" d="M11.9988 0C5.37374 0 0 5.37374 0 11.9988C0 18.6238 5.37374 23.9976 11.9988 23.9976C18.6238 23.9976 23.9976 18.6238 23.9976 11.9988C23.9976 5.37374 18.6238 0 11.9988 0ZM18.5124 12.9844C18.5124 15.9584 16.2755 18.7267 12.5044 20.3636C12.3502 20.4665 12.1959 20.5179 12.0502 20.5693H11.9988H11.9474C11.7931 20.5179 11.6388 20.4151 11.4931 20.3636C7.72207 18.7781 5.48516 16.0098 5.48516 12.9844V5.39088L11.9988 3.85675L18.5124 5.39088V12.9844Z" fill="#001D3A"/>
</svg>